#!OML:ASF F:\VICON\USERDATA\INSTALL\rory3\rory3.ASF
:FULLY-SPECIFIED
:DEGREES
2962
root -2.02622 18.5814 -1.81775 -3.62134 66.2232 366.189
lowerback 6.21165 1.75739 -0.366801
upperback -0.313298 2.25286 -2.11341
thorax -3.73534 1.11389 -2.18814
lowerneck -5.51435 1.25505 -5.69701
upperneck 16.3115 0.739571 12.0577
head 5.70512 0.992517 4.85098
rclavicle 9.98893e-015 -3.02153e-014
rhumerus 22.1023 -38.144 -2.01909
rradius 47.5001
rwrist 5.90926
rhand -40.5366 -2.93381
rfingers 7.12502
rthumb -13.485 327.523
lclavicle 9.98893e-015 -3.02153e-014
lhumerus 24.8314 39.5354 7.44722
lradius 65.1444
lwrist 15.4533
lhand -23.8663 27.0034
lfingers 7.12502
lthumb 2.60644 56.9672
rfemur -0.829999 10.6835 20.6004
rtibia 30.1662
rfoot -24.7213 -33.8125
rtoes 6.83555
lfemur 3.57294 6.9347 -10.787
ltibia 40.9139
lfoot -6.86664 4.24581
ltoes -15.3564
2963
root -2.02762 18.5748 -1.87082 -3.29996 66.5795 366.34
lowerback 6.13197 1.65786 -0.582825
upperback -0.288008 2.1088 -2.0187
thorax -3.68046 1.04737 -1.95218
lowerneck -5.80916 1.2764 -5.96243
upperneck 16.2094 0.80754 12.0571
head 5.71656 1.01146 4.90161
rclavicle 1.13804e-014 -9.54166e-015
rhumerus 21.4919 -38.7567 -2.63494
rradius 44.8779
rwrist 5.28519
rhand -39.2869 -3.36339
rfingers 7.12502
rthumb -12.2803 327.017
lclavicle 1.13804e-014 -9.54166e-015
lhumerus 22.2243 38.2523 6.21515
lradius 63.65
lwrist 15.7822
lhand -23.7066 28.1685
lfingers 7.12502
lthumb 2.76068 58.1303
rfemur -1.13919 10.6486 20.3576
rtibia 30.3063
rfoot -24.728 -34.018
rtoes 6.80925
lfemur 3.6193 6.97509 -11.2799
ltibia 40.4348
lfoot -7.52219 4.85364
ltoes -17.5362
2964
root -2.02729 18.5765 -1.9255 -3.42364 66.9606 365.932
lowerback 5.97515 1.54807 -0.537867
upperback -0.264367 1.9719 -1.88576
thorax -3.57469 0.979526 -1.82149
lowerneck -6.1472 1.26621 -6.07011
upperneck 16.1477 0.834051 11.9182
head 5.75518 1.01174 4.87971
rclavicle -6.01821e-014 -1.19271e-015
rhumerus 20.8226 -39.5689 -3.36371
rradius 42.4554
rwrist 4.38995
rhand -38.2626 -2.60391
rfingers 7.12502
rthumb -11.2926 327.72
lclavicle -6.01821e-014 -1.19271e-015
lhumerus 20.1325 37.1645 5.5895
lradius 61.9466
lwrist 15.8405
lhand -23.3384 28.4799
lfingers 7.12502
lthumb 3.11632 58.4369
rfemur -1.52667 10.5648 20.3391
rtibia 30.4531
rfoot -24.6825 -34.2501
rtoes 6.76763
lfemur 3.61458 6.82727 -11.5844
ltibia 39.7905
lfoot -8.45354 6.15762
ltoes -18.3249
2965
root -2.02485 18.5826 -1.98068 -3.16216 67.2727 366.022
lowerback 5.90341 1.50879 -0.651978
upperback -0.243804 1.91426 -1.84811
thorax -3.5196 0.953496 -1.71066
lowerneck -6.46962 1.20162 -6.13738
upperneck 16.1446 0.774169 11.8153
head 5.81769 0.976857 4.85917
rclavicle -5.79954e-014 -7.95139e-015
rhumerus 19.7258 -40.1834 -3.79982
rradius 39.8882
rwrist 4.47082
rhand -37.3647 -2.42845
rfingers 7.12502
rthumb -10.4265 327.85
lclavicle -5.79954e-014 -7.95139e-015
lhumerus 18.3926 36.08 5.30298
lradius 60.1542
lwrist 15.7797
lhand -22.4574 25.9923
lfingers 7.12502
lthumb 3.96707 55.9351
rfemur -1.82685 10.3671 20.0697
rtibia 30.5709
rfoot -24.4886 -34.3391
rtoes 6.74362
lfemur 3.75562 6.65697 -12.103
ltibia 38.9978
lfoot -9.48019 7.51396
ltoes -18.4974
2966
root -2.02175 18.5825 -2.03454 -2.75939 67.5456 366.381
lowerback 5.91731 1.51219 -0.879264
upperback -0.211686 1.90405 -1.83999
thorax -3.50215 0.952915 -1.57373
lowerneck -6.62074 1.13394 -6.32121
upperneck 15.977 0.713652 11.8263
head 5.79673 0.935513 4.88786
rclavicle -8.34896e-015 1.70955e-014
rhumerus 18.2956 -40.4977 -3.93218
rradius 37.1588
rwrist 5.20042
rhand -36.9513 -2.90161
rfingers 7.12502
rthumb -10.0277 327.357
lclavicle -8.34896e-015 1.70955e-014
lhumerus 16.7891 34.9497 5.20352
lradius 58.3205
lwrist 15.921
lhand -22.0791 25.6567
lfingers 7.12502
lthumb 4.33239 55.5923
rfemur -1.98485 10.1424 19.6909
rtibia 30.6356
rfoot -24.3017 -34.3515
rtoes 6.88312
lfemur 4.04988 6.45193 -12.7253
ltibia 38.1193
lfoot -10.4497 8.6222
ltoes -19.0944
2967
root -2.01875 18.578 -2.08577 -2.53687 67.8082 366.562
lowerback 5.92235 1.52686 -1.09953
upperback -0.165021 1.91106 -1.7849
thorax -3.46568 0.96091 -1.39319
lowerneck -6.73697 1.06973 -6.48235
upperneck 15.7372 0.663346 11.8037
head 5.74691 0.895593 4.89948
rclavicle -5.38209e-014 1.31198e-014
rhumerus 16.8805 -40.9836 -4.11084
rradius 34.5089
rwrist 5.61274
rhand -36.9743 -2.62787
rfingers 7.12502
rthumb -10.0498 327.632
lclavicle -5.38209e-014 1.31198e-014
lhumerus 15.4726 33.954 5.51717
lradius 56.1804
lwrist 15.7065
lhand -21.859 24.912
lfingers 7.12502
lthumb 4.54491 54.8432
rfemur -2.11446 10.0569 19.4314
rtibia 30.6959
rfoot -24.3385 -34.4208
rtoes 6.87249
lfemur 4.4187 6.12908 -13.2907
ltibia 37.182
lfoot -11.5194 9.69763
ltoes -18.8474
2968
root -2.01451 18.5781 -2.13996 -2.51587 68.0041 366.419
lowerback 5.86321 1.51613 -1.08982
upperback -0.160736 1.89944 -1.7584
thorax -3.42875 0.955104 -1.36824
lowerneck -6.84392 1.06059 -6.46552
upperneck 15.517 0.670425 11.751
head 5.69762 0.892768 4.87479
rclavicle -9.69075e-015 1.59028e-014
rhumerus 15.6482 -41.9822 -4.83278
rradius 32.0455
rwrist 6.38925
rhand -37.1282 -2.87556
rfingers 7.12502
rthumb -10.1983 327.392
lclavicle -9.69075e-015 1.59028e-014
lhumerus 14.0553 32.92 5.74942
lradius 53.9692
lwrist 15.5545
lhand -22.0826 23.8722
lfingers 7.12502
lthumb 4.32904 53.808
rfemur -2.34958 10.2412 19.3303
rtibia 30.7711
rfoot -24.5301 -34.6037
rtoes 7.03524
lfemur 4.73133 5.91853 -13.6928
ltibia 36.2443
lfoot -12.6476 10.5782
ltoes -17.0869
2969
root -2.01228 18.5834 -2.19404 -2.44636 68.1549 366.235
lowerback 5.75049 1.51848 -1.0868
upperback -0.188457 1.90519 -1.72765
thorax -3.39493 0.957968 -1.33566
lowerneck -6.95441 1.07565 -6.43618
upperneck 15.3286 0.704629 11.7216
head 5.65601 0.906664 4.85829
rclavicle -1.79403e-014 3.57812e-015
rhumerus 14.3263 -43.0651 -5.52319
rradius 29.9424
rwrist 6.81957
rhand -35.8428 -5.26712
rfingers 7.12502
rthumb -8.9581 324.943
lclavicle -1.79403e-014 3.57812e-015
lhumerus 12.1672 31.7031 5.89709
lradius 52.598
lwrist 15.6562
lhand -22.0535 23.4824
lfingers 7.12502
lthumb 4.35712 53.4175
rfemur -2.69659 10.5536 19.2548
rtibia 30.846
rfoot -24.6806 -34.9384
rtoes 7.31557
lfemur 4.9282 5.8987 -14.0379
ltibia 35.3471
lfoot -13.4305 11.305
ltoes -15.6536
2970
root -2.01092 18.589 -2.25081 -2.09607 68.36 366.354
lowerback 5.60315 1.52469 -1.22369
upperback -0.185424 1.90875 -1.68969
thorax -3.31476 0.962365 -1.21537
lowerneck -7.11173 1.05275 -6.53172
upperneck 15.1769 0.704347 11.6694
head 5.63666 0.896358 4.85554
rclavicle -5.31252e-014 8.74653e-015
rhumerus 12.7396 -43.7297 -5.66644
rradius 28.0671
rwrist 6.1349
rhand -33.2687 -7.38456
rfingers 7.12502
rthumb -6.47364 322.734
lclavicle -5.31252e-014 8.74653e-015
lhumerus 10.6819 31.0481 6.86762
lradius 51.3628
lwrist 14.7958
lhand -21.5957 24.2536
lfingers 7.12502
lthumb 4.79917 54.1793
rfemur -3.05764 10.5025 18.9747
rtibia 30.925
rfoot -24.6472 -35.0652
rtoes 7.42305
lfemur 5.08833 5.869 -14.5495
ltibia 34.4762
lfoot -14.0261 12.2334
ltoes -16.3038
2971
root -2.00999 18.5906 -2.31036 -1.40896 68.5801 366.859
lowerback 5.53342 1.46653 -1.47516
upperback -0.172571 1.81735 -1.67894
thorax -3.27155 0.9213 -1.05346
lowerneck -7.28006 1.12989 -6.63436
upperneck 14.9901 0.852528 11.5565
head 5.59425 0.952541 4.84241
rclavicle -7.34261e-014 -3.06128e-014
rhumerus 11.2358 -44.3036 -6.00496
rradius 26.1465
rwrist 6.11154
rhand -32.3698 -8.12762
rfingers 7.12502
rthumb -5.60581 321.967
lclavicle -7.34261e-014 -3.06128e-014
lhumerus 8.37981 28.7677 6.43572
lradius 50.2083
lwrist 15.5855
lhand -21.9031 25.6577
lfingers 7.12502
lthumb 4.50238 55.5898
rfemur -3.37991 10.5159 18.5553
rtibia 31.0123
rfoot -24.6078 -35.2107
rtoes 7.41334
lfemur 5.26304 5.7369 -15.2599
ltibia 33.6068
lfoot -14.6724 13.3923
ltoes -17.6789
2972
root -2.00898 18.5892 -2.36583 -0.83434 68.7505 367.272
lowerback 5.49529 1.44235 -1.70207
upperback -0.161947 1.7714 -1.71125
thorax -3.24541 0.902218 -0.954631
lowerneck -7.37396 1.21162 -6.58751
upperneck 14.7676 0.985385 11.4651
head 5.53043 1.00985 4.80772
rclavicle 1.8313e-014 1.74931e-014
rhumerus 9.61263 -45.3652 -6.58641
rradius 24.2421
rwrist 6.90725
rhand -32.624 -8.44412
rfingers 7.12502
rthumb -5.85122 321.657
lclavicle 1.8313e-014 1.74931e-014
lhumerus 6.77358 27.6779 7.13662
lradius 48.7252
lwrist 15.0098
lhand -21.9346 25.9569
lfingers 7.12502
lthumb 4.47194 55.8897
rfemur -3.65454 10.938 18.2708
rtibia 31.117
rfoot -24.8364 -35.6237
rtoes 7.58648
lfemur 5.49048 5.59496 -15.8748
ltibia 32.7188
lfoot -15.3321 14.3476
ltoes -18.0277
